<svg width="101" height="41" viewBox="0 0 101 41" fill="none" xmlns="http://www.w3.org/2000/svg">
    <path d="M67.9125 35.3013C66.3192 36.4634 64.3875 37.0692 62.4154 37.0254C59.3486 37.0254 56.3607 36.2369 54.751 35.1961C54.9719 34.5181 55.3454 33.2145 55.498 32.4681L59.0908 15.616C59.3888 14.339 59.5649 13.0366 59.6169 11.7263C59.6261 11.2368 59.5766 10.748 59.4696 10.2702L64.6879 8.66179C64.8025 9.18993 64.8519 9.7301 64.8352 10.2702C64.817 11.4374 64.692 12.6004 64.4617 13.7447L63.8252 16.7724C63.6498 17.6467 63.4125 18.5074 63.115 19.3481C63.7678 18.5918 64.5749 17.9839 65.4822 17.565C66.3895 17.1461 67.376 16.9261 68.3754 16.9196C71.9315 16.9196 73.4991 19.4269 73.4991 23.5742C73.4991 28.2787 71.5159 32.7677 67.9283 35.3013H67.9125ZM66.529 20.9933C64.9983 20.9933 63.3728 22.2654 62.3786 23.9842L60.5111 32.4996C61.2445 33.088 62.171 33.3822 63.1098 33.3249C64.1934 33.3249 65.5401 32.3156 66.266 31.0856C67.3181 29.2143 68.0598 24.9935 68.0598 23.4954C68.0598 21.8554 67.5759 20.9933 66.5659 20.9933H66.529ZM83.2466 15.2428C82.4286 15.2373 81.6462 14.9076 81.0712 14.3261C80.4962 13.7446 80.1756 12.959 80.1798 12.1415C80.1833 11.7311 80.2677 11.3253 80.4282 10.9474C80.5888 10.5696 80.8223 10.2271 81.1154 9.93952C81.4086 9.65195 81.7556 9.42497 82.1367 9.27157C82.5177 9.11816 82.9253 9.04134 83.3361 9.0455C83.7388 9.04893 84.1368 9.13185 84.5074 9.28949C84.8779 9.44714 85.2136 9.6764 85.4952 9.96411C85.7767 10.2518 85.9986 10.5923 86.1481 10.966C86.2976 11.3396 86.3716 11.7392 86.3661 12.1415C86.3668 12.549 86.287 12.9526 86.1312 13.3292C85.9755 13.7057 85.7469 14.0479 85.4586 14.336C85.1702 14.6241 84.8278 14.8525 84.451 15.0081C84.0741 15.1638 83.6702 15.2435 83.2624 15.2428H83.2466ZM80.5533 36.5418H75.5454L79.5433 17.7501L84.7038 16.9617L80.5533 36.5418ZM99.4066 17.4085L97.6128 20.8461H94.283L92.263 30.4496C92.1388 30.9999 92.0771 31.5623 92.0789 32.1264C92.0789 33.1777 92.6365 33.5141 93.757 33.5141C94.3972 33.4869 95.0292 33.3592 95.6297 33.1356V36.1633C94.269 36.6924 92.8235 36.9702 91.3635 36.9833C88.486 36.9833 86.8395 35.5641 86.8395 33.6981C86.8445 32.8696 86.9327 32.0437 87.1025 31.2328L89.3066 20.8461H87.4024L88.1494 17.4085H90.0589C90.3175 15.8719 90.7046 14.3598 91.2162 12.8879L96.4766 11.6159C95.919 13.3715 95.3561 15.4636 94.9458 17.3979L99.4066 17.4085Z" fill="#155DA4"/>
    <path d="M28.8284 3.63324C19.8226 7.83311 15.5143 12.853 13.084 17.3472C13.0314 17.5154 13.1366 17.7362 13.2523 17.6205C15.8457 16.1908 18.276 15.4707 19.933 15.4707C23.8573 15.4497 27.3555 18.9241 27.3923 24.1805C27.3923 29.642 24.7621 34.1152 19.7699 36.6014C17.9263 37.5019 15.9089 37.9915 13.8572 38.0364C6.72938 38.0312 3.68359 32.9535 3.68359 27.3764C3.68359 15.6704 15.0724 5.67798 28.2234 1.92491C28.497 2.03004 29.0493 3.41247 28.8284 3.63324ZM11.4795 21.0267C10.715 23.1333 10.3216 25.3564 10.317 27.5972C10.317 33.1164 12.3633 35.7447 15.4038 35.7447C18.7179 35.7447 21.043 31.1295 21.043 26.2831C20.9904 21.258 19.0019 18.8821 15.6879 18.8821C14.5797 18.9164 13.4965 19.2195 12.5316 19.7652C12.0691 20.0828 11.7046 20.5234 11.4795 21.0372V21.0267ZM54.0889 3.63324C45.0778 7.82786 40.7643 12.853 38.334 17.3472C38.2814 17.5102 38.3866 17.7309 38.5023 17.6205C41.0957 16.1855 43.526 15.4654 45.183 15.4654C49.1073 15.4444 52.6055 18.9241 52.6423 24.1805C52.6423 29.6472 50.0121 34.1204 45.02 36.6067C43.1759 37.5053 41.1585 37.9932 39.1072 38.0364C31.9794 38.0259 28.9336 32.9482 28.9336 27.3764C28.9336 15.6652 40.3224 5.67273 53.4734 1.91965C53.7522 2.03004 54.3046 3.41247 54.0836 3.63324H54.0889ZM36.7348 21.0267C35.9673 23.1325 35.5739 25.3561 35.5722 27.5972C35.5722 33.1164 37.6185 35.7447 40.6538 35.7447C43.9679 35.7447 46.293 31.1295 46.293 26.2831C46.2351 21.2632 44.2467 18.8873 40.9326 18.8873C39.8244 18.9217 38.7412 19.2248 37.7764 19.7704C37.312 20.0862 36.9472 20.5273 36.7243 21.0425L36.7348 21.0267Z" fill="#155DA4"/>
</svg>
